<mxfile host="app.diagrams.net" modified="2023-12-18T12:57:56.604Z" agent="Mozilla/5.0 (Windows NT 10.0; Win64; x64; rv:120.0) Gecko/20100101 Firefox/120.0" version="22.1.11" etag="WlBaHVGU7IeycMi1ZA6R" type="github">
  <diagram name="Seite-1" id="PACfBWOBxV5-IfwlXQrK">
    <mxGraphModel>
      <root>
        <mxCell id="0" />
        <mxCell id="1" parent="0" />
      </root>
    </mxGraphModel>
  </diagram>
</mxfile>
